Patient4_TMGait_0pt3_01_right_20_GRF.mot
version=1
nRows=32
nColumns=19
inDegrees=no
endheader
time	F1x	F1y	F1z	M1x	M1y	M1z	F2x	F2y	F2z	M2x	M2y	M2z	EC1x	EC1y	EC1z	EC2x	EC2y	EC2z
36.45	1.6868	756.4288	54.1191	-299.1422	-49.6631	738.401	-2.2471	2.8045	-0.32359	1.2808	-0.62858	-4.2884	-0.0592	0.0182	-0.0073	-0.0462	0.0165	0.9585
36.4694	-0.75838	769.0292	55.6507	-304.0354	-52.003	748.7773	-1.5748	2.1488	-0.088361	0.9525	-0.53242	-2.4609	-0.0592	0.0182	-0.0073	-0.0462	0.0165	0.9585
36.4887	-2.903	784.1395	57.0565	-309.9998	-54.0688	761.2283	-0.98072	1.6131	0.099433	0.68371	-0.44061	-0.9007	-0.0592	0.0182	-0.0073	-0.0462	0.0165	0.9585
36.5081	-4.46	801.0454	58.1944	-316.7879	-55.5943	775.0322	-0.51563	1.2311	0.23237	0.49091	-0.36105	0.30573	-0.0592	0.0182	-0.0073	-0.0462	0.0165	0.9585
36.5274	-5.253	818.8174	59.0021	-324.0383	-56.4368	789.2485	-0.18837	0.99611	0.31377	0.37126	-0.29323	1.1575	-0.0592	0.0182	-0.0073	-0.0462	0.0165	0.9585
36.5468	-5.2106	836.3346	59.4787	-331.2828	-56.5593	802.7885	0.016052	0.87106	0.3537	0.30832	-0.23564	1.6917	-0.0592	0.0182	-0.0073	-0.0462	0.0165	0.9585
36.5661	-4.3433	852.2192	59.6813	-337.9253	-56.0197	814.3686	0.1237	0.80066	0.36483	0.27748	-0.18725	1.9542	-0.0592	0.0182	-0.0073	-0.0462	0.0165	0.9585
36.5855	-2.7201	864.7986	59.7055	-343.2354	-54.9412	822.4729	0.16132	0.71716	0.35774	0.24955	-0.14674	1.9755	-0.0592	0.0182	-0.0073	-0.0462	0.0165	0.9585
36.6049	-0.48244	872.2269	59.6566	-346.4126	-53.4912	825.4776	0.15348	0.54144	0.34038	0.19278	-0.11242	1.7579	-0.0592	0.0182	-0.0073	-0.0462	0.0165	0.9585
36.6242	2.1719	872.8388	59.6121	-346.7475	-51.8372	821.9639	0.12164	0.18861	0.32123	0.074013	-0.087163	1.2764	-0.0592	0.0182	-0.0073	-0.0462	0.0165	0.9585
36.6436	5.0728	865.7019	59.5672	-343.8595	-50.0607	811.1781	0.084485	-0.42738	0.30896	-0.13964	-0.079407	0.48758	-0.0592	0.0182	-0.0073	-0.0462	0.0165	0.9585
36.6629	8.1425	851.0137	59.4308	-337.8555	-48.1276	793.3647	0.058478	-1.3788	0.31005	-0.47521	-0.098545	-0.65309	-0.0592	0.0182	-0.0073	-0.0462	0.0165	0.9585
36.6823	11.3779	830.1223	59.0897	-329.3215	-45.952	769.7729	0.060345	-2.7014	0.3284	-0.94633	-0.15191	-2.17	-0.0592	0.0182	-0.0073	-0.0462	0.0165	0.9585
36.7016	14.8388	805.3009	58.4719	-319.2131	-43.4525	742.4483	0.10959	-4.366	0.36349	-1.5413	-0.24302	-4.0264	-0.0592	0.0182	-0.0073	-0.0462	0.0165	0.9585
36.721	18.6179	779.3365	57.5707	-308.6822	-40.5889	713.881	0.22649	-6.2247	0.40942	-2.2051	-0.36817	-6.0665	-0.0592	0.0182	-0.0073	-0.0462	0.0165	0.9585
36.7404	22.8053	755.0504	56.4512	-298.8781	-37.3874	686.5929	0.42953	-7.947	0.4535	-2.8183	-0.51524	-7.9537	-0.0592	0.0182	-0.0073	-0.0462	0.0165	0.9585
36.7597	27.4578	734.8517	55.2402	-290.7649	-33.9405	662.7545	0.73265	-8.9571	0.4748	-3.1725	-0.66299	-9.0984	-0.0592	0.0182	-0.0073	-0.0462	0.0165	0.9585
36.7791	32.56	720.2891	54.098	-284.9436	-30.3965	643.8082	1.1389	-8.3708	0.44167	-2.9487	-0.77581	-8.5808	-0.0592	0.0182	-0.0073	-0.0462	0.0165	0.9585
36.7984	37.9864	711.6857	53.1831	-281.5059	-26.9479	630.1641	1.6282	-4.9593	0.31703	-1.7065	-0.80218	-5.1076	-0.0592	0.0182	-0.0073	-0.0462	0.0165	0.9585
36.8178	43.4967	707.9944	52.6198	-279.9818	-23.8048	621.078	2.1424	2.8216	0.059232	1.1056	-0.67074	2.9569	-0.0592	0.0182	-0.0073	-0.0462	0.0165	0.9585
36.8371	48.7203	706.8726	52.4724	-279.3812	-21.1804	614.7363	2.5697	16.693	-0.37367	6.0996	-0.28876	17.4517	-0.0592	0.0182	-0.0073	-0.0462	0.0165	0.9585
36.8565	53.1729	705.0263	52.7154	-278.3464	-19.2612	608.5338	2.724	38.2544	-1.0176	13.8393	0.45369	40.1071	-0.0592	0.0182	-0.0073	-0.0462	0.0165	0.9585
36.8759	56.3349	698.8334	53.1818	-275.4183	-18.1333	599.5721	2.3254	68.467	-1.8877	24.656	1.6748	72.0027	-0.0592	0.0182	-0.0073	-0.0462	0.0165	0.9585
36.8952	57.7755	685.1202	53.5575	-269.3617	-17.7272	585.2795	0.85373	107.0178	-2.9863	38.4192	3.5603	112.8937	-0.0592	0.0182	-0.0073	-0.0462	0.0165	0.9585
36.9146	57.3024	661.9135	53.4581	-259.4634	-17.8195	563.9933	-2.4026	151.9014	-4.4134	54.3793	6.4501	160.7504	-0.0592	0.0182	-0.0073	-0.0462	0.0165	0.9585
36.9339	55.085	628.9531	52.5508	-245.7184	-18.078	535.3488	-7.548	200.0099	-6.5181	71.3643	10.7198	212.3213	-0.0592	0.0182	-0.0073	-0.0462	0.0165	0.9585
36.9533	51.6099	587.5908	50.6767	-228.7604	-18.1715	500.2143	-14.0684	249.133	-9.5146	88.5279	16.3825	265.1953	-0.0592	0.0182	-0.0073	-0.0462	0.0165	0.9585
36.9726	47.4529	539.9313	47.8761	-209.4955	-17.8781	460.0551	-21.2526	298.6994	-13.3063	105.6409	23.0711	318.6378	-0.0592	0.0182	-0.0073	-0.0462	0.0165	0.9585
36.992	43.0382	487.9388	44.2789	-188.7404	-17.0964	416.2924	-28.3981	348.5162	-17.6477	122.6353	30.2735	372.2739	-0.0592	0.0182	-0.0073	-0.0462	0.0165	0.9585
37.0114	38.549	433.2183	40.031	-167.1348	-15.8364	370.1586	-34.8463	398.0598	-22.2824	139.3348	37.48	425.349	-0.0592	0.0182	-0.0073	-0.0462	0.0165	0.9585
37.0307	33.9805	377.204	35.3104	-145.2204	-14.2171	322.8266	-40.0551	446.3964	-27.0273	155.424	44.2998	476.6837	-0.0592	0.0182	-0.0073	-0.0462	0.0165	0.9585
37.0501	29.2441	321.3471	30.3483	-123.5242	-12.4368	275.5236	-43.6961	492.4185	-31.7484	170.5401	50.4706	524.9589	-0.0592	0.0182	-0.0073	-0.0462	0.0165	0.9585
